if (_typeface_js && _typeface_js.loadFace) _typeface_js.loadFace({"glyphs":{"S":{"x_min":70.5,"x_max":733,"ha":815,"o":"m 733 265 b 646 456 733 344 701 412 b 470 522 605 491 563 508 l 363 538 b 216 600 308 547 251 570 b 164 729 181 629 164 672 b 394 933 164 854 251 933 b 634 841 512 933 573 895 l 683 890 b 398 997 598 963 520 997 b 91 726 209 997 91 891 b 169 544 91 650 116 588 b 345 472 210 508 270 483 l 460 454 b 603 401 541 441 567 431 b 658 262 639 369 658 320 b 403 58 658 133 559 58 b 123 175 284 58 212 86 l 70 122 b 399 -8 160 31 252 -8 b 733 265 605 -8 733 98 "},"/":{"x_min":0,"x_max":469.4375,"ha":469,"o":"m 469 1091 l 395 1091 l 0 -102 l 73 -102 l 469 1091 "},"K":{"x_min":152.78125,"x_max":870.828125,"ha":896,"o":"m 870 0 l 513 611 l 819 988 l 729 988 l 227 370 l 227 988 l 152 988 l 152 0 l 227 0 l 227 268 l 463 554 l 781 0 l 870 0 "},"7":{"x_min":119.4375,"x_max":637.5,"ha":714,"o":"m 637 926 l 637 988 l 119 988 l 119 770 l 190 770 l 190 926 l 565 926 l 215 0 l 287 0 l 637 926 "},"d":{"x_min":95.828125,"x_max":615.28125,"ha":750,"o":"m 615 0 l 615 988 l 544 988 l 544 583 b 345 677 486 661 420 677 b 181 619 276 677 216 654 b 95 334 113 551 95 440 b 181 50 95 229 113 118 b 345 -8 216 15 276 -8 b 544 86 420 -8 486 8 l 544 0 l 615 0 m 544 334 b 355 54 544 195 519 54 b 166 334 191 54 166 195 b 355 615 166 473 191 615 b 544 334 519 615 544 473 "},",":{"x_min":131.9375,"x_max":226.390625,"ha":358,"o":"m 226 -94 l 226 94 l 131 94 l 131 -188 l 226 -94 "},"Y":{"x_min":13.890625,"x_max":672.21875,"ha":686,"o":"m 672 988 l 591 988 l 345 488 l 94 988 l 13 988 l 305 409 l 305 0 l 380 0 l 380 409 l 672 988 "},"E":{"x_min":152.78125,"x_max":752.78125,"ha":831,"o":"m 752 0 l 752 66 l 227 66 l 227 465 l 675 465 l 675 531 l 227 531 l 227 922 l 752 922 l 752 988 l 152 988 l 152 0 l 752 0 "},"y":{"x_min":19.4375,"x_max":577.78125,"ha":597,"o":"m 577 669 l 500 669 l 298 83 l 97 669 l 19 669 l 263 0 l 209 -148 b 87 -240 184 -215 163 -240 l 61 -240 l 61 -302 l 94 -302 b 220 -259 138 -302 187 -291 b 266 -181 240 -243 254 -218 l 577 669 "},"\"":{"x_min":131.9375,"x_max":434.71875,"ha":567,"o":"m 434 772 l 434 988 l 347 988 l 347 772 l 434 772 m 219 772 l 219 988 l 131 988 l 131 772 l 219 772 "},"‹":{"x_min":58.328125,"x_max":330.5625,"ha":444,"o":"m 330 95 l 330 187 l 150 368 l 330 548 l 330 640 l 58 368 l 330 95 "},"„":{"x_min":131.9375,"x_max":445.828125,"ha":578,"o":"m 445 0 l 445 97 l 348 97 l 348 -97 l 445 0 m 229 0 l 229 97 l 131 97 l 131 -97 l 229 0 "},"g":{"x_min":96.0625,"x_max":615.5,"ha":750,"o":"m 615 -37 l 615 669 l 544 669 l 544 583 b 346 677 486 661 421 677 b 182 619 276 677 216 654 b 96 334 114 551 96 440 b 182 50 96 229 114 118 b 346 -8 216 15 276 -8 b 544 86 421 -8 486 8 l 544 -33 b 341 -265 544 -165 482 -265 b 168 -191 257 -265 221 -238 l 121 -238 b 341 -327 191 -301 241 -327 b 615 -37 515 -327 615 -205 m 544 334 b 355 54 544 195 519 54 b 166 334 191 54 166 195 b 355 615 166 473 191 615 b 544 334 519 615 544 473 "},"–":{"x_min":73.609375,"x_max":640.28125,"ha":714,"o":"m 640 333 l 640 398 l 73 398 l 73 333 l 640 333 "},"ƒ":{"x_min":41.984375,"x_max":505.6875,"ha":547,"o":"m 505 926 l 505 988 l 444 988 b 252 813 339 988 271 915 l 202 527 l 41 527 l 41 475 l 193 475 l 53 -319 l 123 -319 l 264 475 l 425 475 l 425 527 l 273 527 l 323 815 b 445 926 336 884 375 926 l 505 926 "},"e":{"x_min":95.828125,"x_max":631.9375,"ha":726,"o":"m 631 319 l 631 351 b 363 677 631 555 530 677 b 95 334 195 677 95 550 b 380 -8 95 111 195 -8 b 622 94 491 -8 554 26 l 569 136 b 384 55 512 79 463 55 b 166 319 243 55 166 150 l 631 319 m 561 376 l 166 376 b 190 502 169 440 173 461 b 363 615 219 572 287 615 b 537 502 440 615 508 572 b 561 376 554 461 558 440 "},"J":{"x_min":41.671875,"x_max":552.78125,"ha":692,"o":"m 552 291 l 552 988 l 477 988 l 477 306 b 258 58 477 148 400 58 b 93 127 170 58 130 90 l 41 76 b 258 -8 98 19 169 -8 b 552 291 437 -8 552 111 "},"|":{"x_min":184.71875,"x_max":255.5625,"ha":440,"o":"m 255 -102 l 255 1091 l 184 1091 l 184 -102 l 255 -102 "},"^":{"x_min":105.5625,"x_max":608.328125,"ha":714,"o":"m 608 586 l 388 997 l 325 997 l 105 586 l 176 586 l 356 922 l 537 586 l 608 586 "},"q":{"x_min":95.828125,"x_max":615.28125,"ha":750,"o":"m 615 -319 l 615 669 l 544 669 l 544 583 b 345 677 486 661 420 677 b 181 619 276 677 216 654 b 95 334 113 551 95 440 b 181 50 95 229 113 118 b 345 -8 216 15 276 -8 b 544 86 420 -8 486 8 l 544 -319 l 615 -319 m 544 334 b 355 54 544 195 519 54 b 166 334 191 54 166 195 b 355 615 166 473 191 615 b 544 334 519 615 544 473 "},"b":{"x_min":134.71875,"x_max":654.171875,"ha":750,"o":"m 654 334 b 568 619 654 440 636 551 b 404 677 533 654 473 677 b 205 583 329 677 263 661 l 205 988 l 134 988 l 134 0 l 205 0 l 205 86 b 404 -8 263 8 329 -8 b 568 50 473 -8 533 15 b 654 334 636 118 654 229 m 583 334 b 394 54 583 195 558 54 b 205 334 230 54 205 195 b 394 615 205 473 230 615 b 583 334 558 615 583 473 "},"D":{"x_min":152.78125,"x_max":827.8125,"ha":942,"o":"m 827 508 b 731 898 827 641 831 798 b 484 988 673 956 587 988 l 152 988 l 152 0 l 484 0 b 731 90 587 0 673 31 b 827 508 831 190 827 375 m 752 508 b 679 143 752 398 758 223 b 466 66 622 84 545 66 l 227 66 l 227 922 l 466 922 b 679 845 545 922 622 904 b 752 508 758 765 752 618 "},"z":{"x_min":74.828125,"x_max":552.921875,"ha":628,"o":"m 552 0 l 552 62 l 148 62 l 552 602 l 552 669 l 97 669 l 97 606 l 477 606 l 74 66 l 74 0 l 552 0 "},"w":{"x_min":19.4375,"x_max":969.453125,"ha":989,"o":"m 969 669 l 891 669 l 720 83 l 529 669 l 459 669 l 268 83 l 97 669 l 19 669 l 233 0 l 305 0 l 494 558 l 683 0 l 755 0 l 969 669 "},"$":{"x_min":70.5,"x_max":733,"ha":815,"o":"m 733 263 b 646 455 733 343 701 411 b 470 520 605 490 563 504 l 430 527 l 430 930 b 634 840 524 923 580 888 l 683 888 b 430 994 606 955 534 988 l 430 1118 l 367 1118 l 367 994 b 91 725 196 983 91 880 b 169 543 91 648 117 587 b 345 470 206 512 273 480 l 367 468 l 367 58 b 123 173 269 63 202 94 l 70 120 b 367 -9 155 36 238 -4 l 367 -159 l 430 -159 l 430 -8 b 733 263 617 1 733 105 m 367 537 b 216 598 316 544 260 561 b 164 727 181 627 164 670 b 367 930 164 844 239 920 l 367 537 m 658 261 b 430 58 658 140 570 66 l 430 456 b 603 400 496 447 551 445 b 658 261 639 368 658 319 "},"™":{"x_min":44.4375,"x_max":1045.828125,"ha":1124,"o":"m 1045 395 l 1045 988 l 984 988 l 800 613 l 615 988 l 554 988 l 554 395 l 615 395 l 615 851 l 768 548 l 831 548 l 984 851 l 984 395 l 1045 395 m 444 931 l 444 988 l 44 988 l 44 931 l 213 931 l 213 395 l 275 395 l 275 931 l 444 931 "},"\\":{"x_min":0,"x_max":469.4375,"ha":469,"o":"m 469 -102 l 73 1091 l 0 1091 l 395 -102 l 469 -102 "},"’":{"x_min":131.9375,"x_max":229.171875,"ha":361,"o":"m 229 891 l 229 988 l 131 988 l 131 794 l 229 891 "},"~":{"x_min":73.609375,"x_max":640.28125,"ha":714,"o":"m 640 385 l 597 428 b 481 365 541 372 520 365 b 376 397 445 365 415 381 b 234 440 326 418 280 440 b 73 354 180 440 148 429 l 116 311 b 231 374 172 367 193 374 b 337 342 268 374 298 358 b 479 299 387 321 433 299 b 640 385 533 299 565 310 "},"-":{"x_min":113.890625,"x_max":477.78125,"ha":592,"o":"m 477 333 l 477 398 l 113 398 l 113 333 l 477 333 "},"Q":{"x_min":114.234375,"x_max":837.84375,"ha":904,"o":"m 837 0 l 721 116 b 792 494 790 198 792 290 b 700 895 792 718 790 805 b 453 997 635 961 546 997 b 205 895 360 997 271 961 b 114 494 115 805 114 718 b 205 93 114 270 115 183 b 453 -8 271 27 360 -8 b 671 66 532 -8 610 18 l 787 -50 l 837 0 m 717 494 b 669 168 717 315 712 231 l 532 305 l 482 255 l 621 116 b 453 58 573 79 515 58 b 265 134 382 58 315 84 b 189 494 194 205 189 281 b 265 854 189 706 194 783 b 453 930 315 904 382 930 b 640 854 523 930 590 904 b 717 494 711 783 717 706 "},"M":{"x_min":152.78125,"x_max":983.328125,"ha":1136,"o":"m 983 0 l 983 988 l 908 988 l 572 226 l 227 988 l 152 988 l 152 0 l 227 0 l 227 815 l 533 138 l 608 138 l 908 815 l 908 0 l 983 0 "},"C":{"x_min":113.890625,"x_max":788.890625,"ha":894,"o":"m 788 280 l 715 280 b 452 58 686 144 586 58 b 265 134 381 58 315 84 b 188 494 194 205 188 281 b 265 854 188 706 194 783 b 452 930 315 904 381 930 b 712 708 586 930 683 844 l 788 708 b 452 997 756 887 629 997 b 205 895 359 997 270 961 b 113 494 115 805 113 718 b 205 93 113 270 115 183 b 452 -8 270 27 359 -8 b 788 280 626 -8 756 101 "},"[":{"x_min":134.71875,"x_max":340.28125,"ha":403,"o":"m 340 -102 l 340 -40 l 205 -40 l 205 1029 l 340 1029 l 340 1091 l 134 1091 l 134 -102 l 340 -102 "},"L":{"x_min":152.78125,"x_max":752.78125,"ha":794,"o":"m 752 0 l 752 66 l 227 66 l 227 988 l 152 988 l 152 0 l 752 0 "},"!":{"x_min":184.71875,"x_max":277.78125,"ha":422,"o":"m 269 988 l 193 988 l 197 266 l 265 266 l 269 988 m 277 0 l 277 93 l 184 93 l 184 0 l 277 0 "}," ":{"x_min":0,"x_max":0,"ha":354},"{":{"x_min":69.171875,"x_max":369.171875,"ha":439,"o":"m 369 -102 l 369 -40 l 351 -40 b 269 -22 301 -40 283 -36 b 249 68 255 -6 249 16 l 249 355 b 165 494 249 427 223 465 b 249 633 223 523 249 561 l 249 920 b 269 1011 249 972 255 995 b 351 1029 283 1025 301 1029 l 369 1029 l 369 1091 l 349 1091 b 215 1054 281 1091 242 1081 b 178 922 188 1027 178 997 l 178 634 b 153 551 178 595 170 568 b 94 525 140 537 119 525 l 69 525 l 69 463 l 94 463 b 153 437 119 463 140 451 b 178 354 170 420 178 393 l 178 66 b 215 -65 178 -8 188 -38 b 349 -102 242 -93 281 -102 l 369 -102 "},"X":{"x_min":25,"x_max":713.890625,"ha":739,"o":"m 713 0 l 408 506 l 691 988 l 605 988 l 368 573 l 131 988 l 44 988 l 327 506 l 25 0 l 109 0 l 368 440 l 626 0 l 713 0 "},"P":{"x_min":152.78125,"x_max":813.890625,"ha":876,"o":"m 813 704 b 515 988 813 884 686 988 l 152 988 l 152 0 l 227 0 l 227 419 l 515 419 b 813 704 686 419 813 523 m 738 704 b 506 486 738 555 643 486 l 227 486 l 227 922 l 506 922 b 738 704 643 922 738 852 "},"%":{"x_min":95.828125,"x_max":1054.171875,"ha":1150,"o":"m 1054 176 l 1054 325 b 872 511 1054 434 979 511 b 688 325 763 511 688 434 l 688 176 b 872 -9 688 66 763 -9 b 1054 176 979 -9 1054 66 m 837 988 l 775 988 l 313 0 l 376 0 l 837 988 m 461 663 l 461 812 b 279 998 461 922 386 998 b 95 812 170 998 95 922 l 95 663 b 279 479 95 555 170 479 b 461 663 386 479 461 555 m 993 179 b 872 43 993 97 958 43 b 750 179 786 43 750 95 l 750 322 b 872 458 750 405 786 458 b 993 322 958 458 993 404 l 993 179 m 400 666 b 279 531 400 584 363 531 b 156 666 193 531 156 583 l 156 809 b 279 945 156 893 193 945 b 400 809 365 945 400 891 l 400 666 "},"#":{"x_min":116.671875,"x_max":816.671875,"ha":888,"o":"m 816 606 l 816 669 l 686 669 l 736 988 l 666 988 l 616 669 l 373 669 l 425 988 l 352 988 l 302 669 l 156 669 l 156 606 l 294 606 l 259 394 l 116 394 l 116 333 l 250 333 l 197 0 l 268 0 l 319 333 l 563 333 l 509 0 l 580 0 l 633 333 l 776 333 l 776 394 l 643 394 l 677 606 l 816 606 m 606 606 l 572 394 l 329 394 l 363 606 l 606 606 "},"_":{"x_min":0,"x_max":713.890625,"ha":714,"o":"m 713 -222 l 713 -169 l 0 -169 l 0 -222 l 713 -222 "},"+":{"x_min":73.609375,"x_max":640.28125,"ha":714,"o":"m 640 333 l 640 398 l 390 398 l 390 648 l 325 648 l 325 398 l 73 398 l 73 333 l 325 333 l 325 81 l 390 81 l 390 333 l 640 333 "},"‚":{"x_min":131.9375,"x_max":229.171875,"ha":361,"o":"m 229 0 l 229 97 l 131 97 l 131 -97 l 229 0 "},")":{"x_min":90.28125,"x_max":259.71875,"ha":394,"o":"m 259 109 l 259 879 b 233 1008 259 923 256 965 b 141 1119 211 1051 184 1076 l 90 1068 b 165 977 120 1037 148 1012 b 184 870 179 948 184 912 l 184 118 b 165 11 184 76 179 40 b 90 -79 148 -23 120 -48 l 141 -130 b 233 -19 184 -87 211 -62 b 259 109 256 23 259 65 "},"'":{"x_min":131.9375,"x_max":219.4375,"ha":351,"o":"m 219 772 l 219 988 l 131 988 l 131 772 l 219 772 "},"}":{"x_min":69.828125,"x_max":369.828125,"ha":439,"o":"m 369 463 l 369 525 l 344 525 b 285 551 319 525 299 537 b 260 634 268 568 260 595 l 260 922 b 224 1054 260 997 250 1027 b 89 1091 196 1081 157 1091 l 69 1091 l 69 1029 l 87 1029 b 169 1011 137 1029 155 1025 b 189 920 183 995 189 972 l 189 633 b 274 494 189 561 215 523 b 189 355 215 465 189 427 l 189 68 b 169 -22 189 16 183 -6 b 87 -40 155 -36 137 -40 l 69 -40 l 69 -102 l 89 -102 b 224 -65 157 -102 196 -93 b 260 66 250 -38 260 -8 l 260 354 b 285 437 260 393 268 420 b 344 463 299 451 319 463 l 369 463 "},"‰":{"x_min":95.828125,"x_max":1526.390625,"ha":1622,"o":"m 1526 176 l 1526 325 b 1344 511 1526 434 1451 511 b 1161 325 1236 511 1161 434 l 1161 176 b 1344 -9 1161 66 1236 -9 b 1526 176 1451 -9 1526 66 m 1054 176 l 1054 325 b 872 511 1054 434 979 511 b 688 325 763 511 688 434 l 688 176 b 872 -9 688 66 763 -9 b 1054 176 979 -9 1054 66 m 837 988 l 775 988 l 313 0 l 376 0 l 837 988 m 461 663 l 461 812 b 279 998 461 922 386 998 b 95 812 170 998 95 922 l 95 663 b 279 479 95 555 170 479 b 461 663 386 479 461 555 m 1465 177 b 1344 43 1465 95 1430 43 b 1222 179 1256 43 1222 95 l 1222 322 b 1344 458 1222 405 1256 458 b 1465 322 1430 458 1465 404 l 1465 177 m 993 179 b 872 43 993 97 958 43 b 750 179 786 43 750 95 l 750 322 b 872 458 750 405 786 458 b 993 322 958 458 993 404 l 993 179 m 400 666 b 279 531 400 584 363 531 b 156 666 193 531 156 583 l 156 809 b 279 945 156 893 193 945 b 400 809 365 945 400 891 l 400 666 "},"a":{"x_min":78.0625,"x_max":598.890625,"ha":728,"o":"m 598 0 l 598 458 b 339 677 598 598 515 677 b 103 575 230 677 160 654 l 154 530 b 339 615 196 591 244 615 b 528 451 475 615 528 558 l 528 376 l 311 376 b 78 183 165 376 78 305 b 126 52 78 133 96 84 b 323 -8 169 8 225 -8 b 528 66 418 -8 471 9 l 528 0 l 598 0 m 528 233 b 490 105 528 170 515 129 b 323 54 443 59 385 54 b 148 184 203 54 148 95 b 319 319 148 273 204 319 l 528 319 l 528 233 "},"T":{"x_min":41.671875,"x_max":706.953125,"ha":749,"o":"m 706 922 l 706 988 l 41 988 l 41 922 l 336 922 l 336 0 l 411 0 l 411 922 l 706 922 "},"—":{"x_min":113.890625,"x_max":1098.609375,"ha":1213,"o":"m 1098 333 l 1098 398 l 113 398 l 113 333 l 1098 333 "},"=":{"x_min":73.609375,"x_max":640.28125,"ha":714,"o":"m 640 438 l 640 504 l 73 504 l 73 438 l 640 438 m 640 226 l 640 291 l 73 291 l 73 226 l 640 226 "},"N":{"x_min":152.78125,"x_max":873.609375,"ha":1026,"o":"m 873 0 l 873 988 l 798 988 l 798 131 l 227 988 l 152 988 l 152 0 l 227 0 l 227 859 l 798 0 l 873 0 "},"⁄":{"x_min":-138.890625,"x_max":384.71875,"ha":246,"o":"m 384 988 l 322 988 l -138 0 l -76 0 l 384 988 "},"2":{"x_min":100,"x_max":623.609375,"ha":714,"o":"m 623 0 l 623 62 l 184 62 l 555 547 b 623 737 605 612 623 663 b 362 997 623 894 520 997 b 101 737 198 997 101 884 l 172 737 b 362 934 172 876 259 934 b 552 737 481 934 552 855 b 497 583 552 680 536 633 l 100 62 l 100 0 l 623 0 "},"j":{"x_min":-16.671875,"x_max":213.890625,"ha":340,"o":"m 213 901 l 213 988 l 126 988 l 126 901 l 213 901 m 205 -145 l 205 669 l 134 669 l 134 -144 b 31 -256 134 -219 111 -256 l -16 -256 l -16 -319 l 44 -319 b 205 -145 152 -319 205 -250 "},"Z":{"x_min":87.5,"x_max":688.890625,"ha":776,"o":"m 688 0 l 688 66 l 163 66 l 688 922 l 688 988 l 108 988 l 108 922 l 608 922 l 87 79 l 87 0 l 688 0 "},"u":{"x_min":126.390625,"x_max":641.671875,"ha":776,"o":"m 641 0 l 641 669 l 570 669 l 570 254 b 381 54 570 127 501 54 b 197 254 262 54 197 125 l 197 669 l 126 669 l 126 241 b 195 55 126 162 151 98 b 373 -8 238 13 298 -8 b 570 79 454 -8 520 20 l 570 0 l 641 0 "},"1":{"x_min":184.71875,"x_max":434.71875,"ha":714,"o":"m 434 0 l 434 988 l 363 988 l 184 834 l 184 750 l 363 908 l 363 0 l 434 0 "},"›":{"x_min":113.890625,"x_max":386.109375,"ha":444,"o":"m 386 368 l 113 640 l 113 548 l 294 368 l 113 187 l 113 95 l 386 368 "},"k":{"x_min":134.71875,"x_max":676.390625,"ha":732,"o":"m 676 0 l 406 419 l 627 669 l 537 669 l 205 291 l 205 988 l 134 988 l 134 0 l 205 0 l 205 191 l 358 368 l 588 0 l 676 0 "},"<":{"x_min":79.171875,"x_max":1347.21875,"ha":1426,"o":"m 1347 330 l 1347 400 l 209 400 l 736 926 l 640 926 l 79 365 l 640 -195 l 736 -195 l 209 330 l 1347 330 "},"t":{"x_min":59.71875,"x_max":373.609375,"ha":451,"o":"m 373 0 l 373 62 l 325 62 b 222 173 254 62 222 104 l 222 616 l 373 616 l 373 669 l 222 669 l 222 883 l 151 883 l 151 669 l 59 669 l 59 616 l 151 616 l 151 175 b 312 0 151 73 206 0 l 373 0 "},"W":{"x_min":27.78125,"x_max":1141.671875,"ha":1169,"o":"m 1141 988 l 1062 988 l 854 129 l 623 988 l 545 988 l 315 129 l 106 988 l 27 988 l 275 0 l 351 0 l 584 861 l 818 0 l 894 0 l 1141 988 "},"v":{"x_min":19.4375,"x_max":577.78125,"ha":597,"o":"m 577 669 l 500 669 l 298 83 l 97 669 l 19 669 l 263 0 l 333 0 l 577 669 "},">":{"x_min":79.171875,"x_max":1347.21875,"ha":1426,"o":"m 1347 365 l 786 926 l 690 926 l 1216 400 l 79 400 l 79 330 l 1216 330 l 690 -195 l 786 -195 l 1347 365 "},"s":{"x_min":69.328125,"x_max":608.21875,"ha":686,"o":"m 608 190 b 412 365 608 320 523 355 l 304 375 b 167 487 209 383 167 418 b 338 616 167 569 229 616 b 526 559 412 616 474 597 l 573 606 b 338 677 515 651 430 677 b 98 487 192 677 98 602 b 299 312 98 383 165 323 l 411 302 b 538 190 498 294 538 259 b 337 54 538 100 467 54 b 117 136 241 54 170 80 l 69 87 b 340 -8 137 22 223 -8 b 608 190 504 -8 608 68 "},"B":{"x_min":152.78125,"x_max":818.0625,"ha":932,"o":"m 818 269 b 648 508 818 383 755 472 b 802 730 744 540 802 627 b 516 988 802 894 680 988 l 152 988 l 152 0 l 527 0 b 818 269 702 0 818 93 m 727 730 b 508 538 727 594 627 538 l 227 538 l 227 922 l 508 922 b 727 730 627 922 727 866 m 743 269 b 519 66 743 143 654 66 l 227 66 l 227 472 l 519 472 b 743 269 654 472 743 395 "},"…":{"x_min":131.9375,"x_max":873.609375,"ha":1006,"o":"m 873 0 l 873 102 l 770 102 l 770 0 l 873 0 m 554 0 l 554 102 l 451 102 l 451 0 l 554 0 m 234 0 l 234 102 l 131 102 l 131 0 l 234 0 "},"?":{"x_min":111.109375,"x_max":608.328125,"ha":678,"o":"m 608 752 b 359 997 608 891 501 997 b 111 752 212 997 111 884 l 181 752 b 359 934 181 850 251 934 b 537 752 461 934 537 855 b 490 625 537 700 518 666 l 373 452 b 333 327 345 412 333 380 l 333 265 l 404 265 l 404 330 b 429 413 404 352 411 387 l 547 587 b 608 752 583 640 608 688 m 415 0 l 415 93 l 322 93 l 322 0 l 415 0 "},"H":{"x_min":152.78125,"x_max":818.0625,"ha":971,"o":"m 818 0 l 818 988 l 743 988 l 743 531 l 227 531 l 227 988 l 152 988 l 152 0 l 227 0 l 227 465 l 743 465 l 743 0 l 818 0 "},"c":{"x_min":95.828125,"x_max":611.109375,"ha":685,"o":"m 611 94 l 562 138 b 390 54 505 75 461 54 b 212 143 315 54 252 84 b 166 334 179 191 166 244 b 212 526 166 425 179 477 b 390 615 252 584 315 615 b 562 530 461 615 505 594 l 611 575 b 390 677 538 654 481 677 b 95 334 208 677 95 547 b 390 -8 95 122 208 -8 b 611 94 481 -8 538 15 "},"&":{"x_min":116.671875,"x_max":919.453125,"ha":1036,"o":"m 919 0 l 777 172 b 863 473 840 248 863 350 l 790 473 b 731 227 790 347 775 294 l 448 570 b 522 620 472 586 522 620 b 636 798 584 662 636 718 b 434 997 636 909 547 997 b 233 800 322 997 233 911 b 343 580 233 713 290 643 b 116 273 226 502 116 430 b 423 -8 116 105 241 -8 b 727 116 587 -8 688 79 l 823 0 l 919 0 m 562 798 b 462 659 562 733 513 694 b 405 620 462 659 423 633 b 308 802 329 713 308 752 b 434 930 308 876 362 930 b 562 798 506 930 562 873 m 686 168 b 422 58 586 79 501 58 b 191 277 286 58 191 147 b 386 530 191 405 293 466 l 686 168 "},"I":{"x_min":152.78125,"x_max":227.78125,"ha":381,"o":"m 227 0 l 227 988 l 152 988 l 152 0 l 227 0 "},"•":{"x_min":152.78125,"x_max":605.5625,"ha":758,"o":"m 605 463 b 379 690 605 588 504 690 b 152 463 254 690 152 588 b 379 237 152 338 254 237 b 605 463 504 237 605 338 "},"G":{"x_min":113.828125,"x_max":793,"ha":904,"o":"m 793 344 l 793 505 l 452 505 l 452 438 l 718 438 l 718 350 b 658 154 718 265 701 206 b 452 58 606 91 530 58 b 265 134 381 58 315 84 b 188 494 194 205 188 281 b 265 854 188 706 194 783 b 452 930 315 904 381 930 b 715 708 586 930 686 844 l 790 708 b 452 997 759 883 626 997 b 205 895 359 997 270 961 b 113 494 115 805 113 718 b 205 93 113 270 115 183 b 452 -8 270 27 359 -8 b 712 105 552 -8 647 33 b 793 344 770 168 793 241 "},"(":{"x_min":134.71875,"x_max":301.390625,"ha":394,"o":"m 301 -81 b 226 8 270 -51 243 -26 b 205 118 212 37 205 75 l 205 870 b 226 980 205 913 212 951 b 301 1070 243 1015 270 1040 l 252 1119 b 161 1008 209 1076 183 1051 b 134 879 138 965 134 923 l 134 109 b 161 -19 134 65 138 23 b 252 -130 183 -62 209 -87 l 301 -81 "},"`":{"x_min":184.71875,"x_max":412.5,"ha":694,"o":"m 412 819 l 277 1023 l 184 1023 l 331 819 l 412 819 "},"U":{"x_min":138.890625,"x_max":816.671875,"ha":956,"o":"m 816 320 l 816 988 l 741 988 l 741 330 b 477 58 741 166 636 58 b 213 330 319 58 213 166 l 213 988 l 138 988 l 138 320 b 477 -8 138 127 279 -8 b 816 320 676 -8 816 127 "},"◊":{"x_min":100,"x_max":808.328125,"ha":908,"o":"m 808 494 l 454 998 l 100 494 l 454 -9 l 808 494 m 729 494 l 454 95 l 179 494 l 454 890 l 729 494 "},"F":{"x_min":152.78125,"x_max":752.78125,"ha":800,"o":"m 752 922 l 752 988 l 152 988 l 152 0 l 227 0 l 227 448 l 675 448 l 675 515 l 227 515 l 227 922 l 752 922 "},"r":{"x_min":134.71875,"x_max":562.5,"ha":568,"o":"m 562 613 b 401 677 515 661 465 677 b 205 580 322 677 244 643 l 205 669 l 134 669 l 134 0 l 205 0 l 205 412 b 384 615 205 520 269 615 b 511 562 440 615 470 602 l 562 613 "},":":{"x_min":170.828125,"x_max":273.609375,"ha":406,"o":"m 273 433 l 273 536 l 170 536 l 170 433 l 273 433 m 273 0 l 273 102 l 170 102 l 170 0 l 273 0 "},"x":{"x_min":55.5625,"x_max":583.328125,"ha":639,"o":"m 583 0 l 356 341 l 573 669 l 487 669 l 320 400 l 151 669 l 65 669 l 281 341 l 55 0 l 141 0 l 320 281 l 497 0 l 583 0 "},"*":{"x_min":100,"x_max":548.609375,"ha":649,"o":"m 548 661 l 377 755 l 548 850 l 518 902 l 351 801 l 355 997 l 293 997 l 297 801 l 130 902 l 100 850 l 270 755 l 100 661 l 130 608 l 297 709 l 293 513 l 355 513 l 351 709 l 518 608 l 548 661 "},"†":{"x_min":111.109375,"x_max":741.671875,"ha":853,"o":"m 741 634 l 741 697 l 459 697 l 459 988 l 388 988 l 388 697 l 111 697 l 111 634 l 388 634 l 388 0 l 459 0 l 459 634 l 741 634 "},"V":{"x_min":13.890625,"x_max":727.78125,"ha":742,"o":"m 727 988 l 648 988 l 370 131 l 93 988 l 13 988 l 338 0 l 402 0 l 727 988 "},"h":{"x_min":134.71875,"x_max":650,"ha":776,"o":"m 650 0 l 650 427 b 402 677 650 581 555 677 b 205 590 322 677 255 648 l 205 988 l 134 988 l 134 0 l 205 0 l 205 415 b 394 615 205 541 275 615 b 579 415 513 615 579 544 l 579 0 l 650 0 "},"0":{"x_min":97.21875,"x_max":616.671875,"ha":714,"o":"m 616 255 l 616 733 b 356 997 616 887 509 997 b 97 733 204 997 97 887 l 97 255 b 356 -8 97 101 204 -8 b 616 255 509 -8 616 101 m 545 262 b 356 54 545 145 480 54 b 168 262 233 54 168 145 l 168 726 b 356 934 168 843 233 934 b 545 726 480 934 545 843 l 545 262 "},".":{"x_min":131.9375,"x_max":234.71875,"ha":367,"o":"m 234 0 l 234 102 l 131 102 l 131 0 l 234 0 "},"”":{"x_min":131.9375,"x_max":445.828125,"ha":578,"o":"m 445 891 l 445 988 l 348 988 l 348 794 l 445 891 m 229 891 l 229 988 l 131 988 l 131 794 l 229 891 "},"@":{"x_min":106.9375,"x_max":861.109375,"ha":968,"o":"m 861 0 l 861 703 b 783 913 861 791 833 863 b 587 988 736 960 668 988 l 379 988 b 183 913 297 988 230 962 b 106 703 134 863 106 791 l 106 217 b 215 -10 106 95 129 49 l 263 38 b 177 217 194 88 177 123 l 177 708 b 234 873 177 790 191 830 b 391 931 275 913 322 931 l 575 931 b 733 873 644 931 693 913 b 790 708 775 830 790 787 l 790 584 b 595 678 741 648 680 678 b 398 585 512 678 438 644 b 344 334 359 530 344 456 b 404 80 344 208 361 138 b 597 -10 448 21 516 -10 b 790 81 684 -10 744 19 l 790 0 l 861 0 m 790 334 b 602 52 790 198 769 52 b 415 334 436 52 415 198 b 602 616 415 470 436 616 b 790 334 769 616 790 470 "},"f":{"x_min":63.890625,"x_max":377.78125,"ha":422,"o":"m 377 616 l 377 669 l 226 669 l 226 815 b 329 926 226 884 258 926 l 377 926 l 377 988 l 316 988 b 155 813 211 988 155 915 l 155 669 l 63 669 l 63 616 l 155 616 l 155 0 l 226 0 l 226 616 l 377 616 "},";":{"x_min":170.828125,"x_max":273.609375,"ha":406,"o":"m 273 433 l 273 536 l 170 536 l 170 433 l 273 433 m 268 -94 l 268 94 l 173 94 l 173 -188 l 268 -94 "},"“":{"x_min":131.9375,"x_max":445.828125,"ha":578,"o":"m 445 891 l 445 1086 l 348 988 l 348 891 l 445 891 m 229 891 l 229 1086 l 131 988 l 131 891 l 229 891 "},"i":{"x_min":126.390625,"x_max":213.890625,"ha":340,"o":"m 213 901 l 213 988 l 126 988 l 126 901 l 213 901 m 205 0 l 205 669 l 134 669 l 134 0 l 205 0 "},"6":{"x_min":98.609375,"x_max":622.21875,"ha":714,"o":"m 622 279 b 366 555 622 433 529 555 b 251 532 322 555 283 547 l 479 989 l 408 989 l 154 476 b 98 269 113 394 98 333 b 361 -8 98 108 194 -8 b 622 279 527 -8 622 121 m 551 273 b 359 54 551 141 476 54 b 169 273 243 54 169 141 b 359 493 169 407 243 493 b 551 273 486 493 551 391 "},"A":{"x_min":20.828125,"x_max":815.28125,"ha":836,"o":"m 815 0 l 451 988 l 384 988 l 20 0 l 101 0 l 187 240 l 648 240 l 734 0 l 815 0 m 625 306 l 211 306 l 418 888 l 625 306 "},"‘":{"x_min":131.9375,"x_max":229.171875,"ha":361,"o":"m 229 891 l 229 1086 l 131 988 l 131 891 l 229 891 "},"n":{"x_min":134.71875,"x_max":650,"ha":776,"o":"m 650 0 l 650 427 b 580 613 650 506 625 570 b 402 677 537 655 477 677 b 205 590 322 677 255 648 l 205 669 l 134 669 l 134 0 l 205 0 l 205 415 b 394 615 205 541 275 615 b 579 415 513 615 579 544 l 579 0 l 650 0 "},"O":{"x_min":113.890625,"x_max":791.671875,"ha":906,"o":"m 791 494 b 700 895 791 718 790 805 b 452 997 634 961 545 997 b 205 895 359 997 270 961 b 113 494 115 805 113 718 b 205 93 113 270 115 183 b 452 -8 270 27 359 -8 b 700 93 545 -8 634 27 b 791 494 790 183 791 270 m 716 494 b 640 134 716 281 711 205 b 452 58 590 84 523 58 b 265 134 381 58 315 84 b 188 494 194 205 188 281 b 265 854 188 706 194 783 b 452 930 315 904 381 930 b 640 854 523 930 590 904 b 716 494 711 783 716 706 "},"3":{"x_min":58.03125,"x_max":620.53125,"ha":714,"o":"m 620 263 b 460 511 620 388 570 473 b 601 736 559 552 601 631 b 338 998 601 894 494 998 b 70 755 195 998 84 909 l 141 755 b 338 936 153 865 221 936 b 530 736 445 936 530 866 b 334 537 530 609 466 537 l 317 537 l 317 475 l 334 475 b 549 263 485 475 549 397 b 339 52 549 131 458 52 b 128 240 237 52 138 105 l 58 240 b 339 -9 67 69 185 -9 b 620 263 498 -9 620 87 "},"]":{"x_min":62.5,"x_max":268.0625,"ha":403,"o":"m 268 -102 l 268 1091 l 62 1091 l 62 1033 l 201 1033 l 201 -44 l 62 -44 l 62 -102 l 268 -102 "},"m":{"x_min":134.71875,"x_max":1093.0625,"ha":1219,"o":"m 1093 0 l 1093 427 b 1023 613 1093 506 1068 570 b 847 677 981 654 920 677 b 619 555 748 677 669 634 b 404 677 579 634 502 677 b 205 590 323 677 254 647 l 205 669 l 134 669 l 134 0 l 205 0 l 205 415 b 394 615 205 541 275 615 b 579 415 513 615 579 544 l 579 0 l 650 0 l 650 427 b 838 615 650 541 723 615 b 1023 415 958 615 1023 544 l 1023 0 l 1093 0 "},"9":{"x_min":91.671875,"x_max":615.28125,"ha":714,"o":"m 615 719 b 352 997 615 880 519 997 b 91 709 186 997 91 867 b 345 433 91 555 183 433 b 462 456 390 433 430 441 l 234 0 l 305 0 l 559 512 b 615 719 600 594 615 655 m 544 715 b 352 495 544 581 469 495 b 162 715 226 495 162 597 b 352 934 162 847 236 934 b 544 715 469 934 544 847 "},"l":{"x_min":131.9375,"x_max":354.171875,"ha":399,"o":"m 354 0 l 354 62 l 305 62 b 202 175 226 62 202 100 l 202 988 l 131 988 l 131 173 b 293 0 131 69 184 0 l 354 0 "},"8":{"x_min":75,"x_max":638.890625,"ha":714,"o":"m 638 266 b 483 513 638 380 577 463 b 618 738 570 561 618 637 b 356 997 618 884 511 997 b 95 738 202 997 95 884 b 231 513 95 637 144 561 b 75 266 137 463 75 380 b 356 -8 75 108 197 -8 b 638 266 516 -8 638 108 m 547 738 b 356 543 547 623 469 543 b 166 738 244 543 166 623 b 356 934 166 852 244 934 b 547 738 469 934 547 852 m 568 266 b 356 54 568 145 476 54 b 145 266 237 54 145 145 b 356 480 145 387 237 480 b 568 266 476 480 568 387 "},"p":{"x_min":134.71875,"x_max":654.171875,"ha":750,"o":"m 654 334 b 568 619 654 440 636 551 b 404 677 533 654 473 677 b 205 583 329 677 263 661 l 205 669 l 134 669 l 134 -319 l 205 -319 l 205 86 b 404 -8 263 8 329 -8 b 568 50 473 -8 533 15 b 654 334 636 118 654 229 m 583 334 b 394 54 583 195 558 54 b 205 334 230 54 205 195 b 394 615 205 473 230 615 b 583 334 558 615 583 473 "},"4":{"x_min":59.4375,"x_max":653.890625,"ha":714,"o":"m 653 162 l 653 225 l 521 225 l 521 538 l 451 538 l 451 225 l 134 225 l 498 988 l 423 988 l 59 225 l 59 162 l 451 162 l 451 0 l 521 0 l 521 162 l 653 162 "},"‡":{"x_min":111.109375,"x_max":741.671875,"ha":853,"o":"m 741 -27 l 741 34 l 459 34 l 459 634 l 741 634 l 741 697 l 459 697 l 459 988 l 388 988 l 388 697 l 111 697 l 111 634 l 388 634 l 388 34 l 111 34 l 111 -27 l 388 -27 l 388 -319 l 459 -319 l 459 -27 l 741 -27 "},"R":{"x_min":152.78125,"x_max":823.609375,"ha":913,"o":"m 823 0 l 584 456 b 812 723 723 480 812 576 b 529 988 812 895 690 988 l 152 988 l 152 0 l 227 0 l 227 455 l 500 455 l 736 0 l 823 0 m 737 722 b 519 522 737 586 645 522 l 227 522 l 227 922 l 519 922 b 737 722 645 922 737 858 "},"o":{"x_min":95.828125,"x_max":634.71875,"ha":731,"o":"m 634 334 b 551 604 634 430 622 533 b 365 677 504 651 440 677 b 179 604 290 677 226 651 b 95 334 108 533 95 430 b 179 65 95 238 108 136 b 365 -8 226 18 290 -8 b 551 65 440 -8 504 18 b 634 334 622 136 634 238 m 563 334 b 504 111 563 256 559 166 b 365 54 468 75 419 54 b 226 111 311 54 262 75 b 166 334 170 166 166 256 b 226 558 166 412 170 502 b 365 615 262 594 311 615 b 504 558 419 615 468 594 b 563 334 559 502 563 412 "},"5":{"x_min":102.78125,"x_max":626.390625,"ha":714,"o":"m 626 323 b 545 590 626 416 615 520 b 379 650 506 629 450 650 b 191 576 298 650 234 626 l 191 926 l 604 926 l 604 988 l 129 988 l 129 483 l 191 483 b 370 587 212 550 280 587 b 555 323 533 587 555 447 b 495 102 555 250 554 161 b 359 52 463 70 413 52 b 173 218 244 52 187 112 l 102 218 b 169 56 108 147 131 94 b 359 -9 212 12 279 -9 b 550 61 441 -9 504 15 b 626 323 620 131 626 229 "}}}
